<svg xmlns="http://www.w3.org/2000/svg" width="28" height="23" viewBox="0 0 28 23">
    <g fill="none" fill-rule="nonzero">
        <path fill="#FFF" d="M10.211 1.54L.441 6.159v11.679l9.77 4.734 9.816-4.734V6.397z"/>
        <path fill="#FF826B" d="M13.478 2.937l-9.61 4.886v4.233l2.334 1.077.06-3.975 9.827-4.71z"/>
        <path fill="#000" d="M.18 5.994l9.892-4.78a.318.318 0 0 1 .278 0l9.892 4.78c.11.053.18.165.18.288v11.609c0 .122-.07.234-.18.287l-9.892 4.78a.322.322 0 0 1-.278 0L.18 18.178a.319.319 0 0 1-.18-.287V6.282a.32.32 0 0 1 .18-.288zm10.031-4.137L1.053 6.282l2.655 1.282a.332.332 0 0 1 .054-.034l9.096-4.395-2.647-1.278zm3.368 1.64L4.434 7.914l1.872.905 9.14-4.416-1.867-.908zM4.22 8.521v3.345l1.75.845V9.367l-1.75-.845zM.638 17.69l9.254 4.472v-10.9l-2.207-1.064a.32.32 0 0 1 .277-.576l2.25 1.087.884-.426a.319.319 0 1 1 .278.575l-.843.408V22.16l9.253-4.472V6.791l-7.047 3.405a.318.318 0 0 1-.425-.149.32.32 0 0 1 .148-.426l6.91-3.338-3.17-1.534-9.587 4.633a.063.063 0 0 1-.004.006v3.833a.32.32 0 0 1-.46.29l-2.387-1.156a.319.319 0 0 1-.18-.288V8.213L.637 6.791V17.69z"/>
        <ellipse cx="19.235" cy="6.374" fill="#FFF" rx="5.777" ry="5.782"/>
        <path fill="#000" d="M27.795 14.055l-3.634-3.637a6.374 6.374 0 0 0-.652-8.759 6.36 6.36 0 0 0-8.772.218 6.374 6.374 0 0 0-.217 8.78 6.36 6.36 0 0 0 8.75.653l3.634 3.634a.629.629 0 1 0 .891-.89zm-8.56-2.572a5.103 5.103 0 0 1-4.42-2.554 5.113 5.113 0 0 1 0-5.109 5.103 5.103 0 0 1 4.42-2.554 5.117 5.117 0 0 1 5.106 5.111 5.112 5.112 0 0 1-5.106 5.106z"/>
    </g>
</svg>
