<svg xmlns="http://www.w3.org/2000/svg" xmlns:xlink="http://www.w3.org/1999/xlink" width="62" height="81" viewBox="0 0 62 81">
    <defs>
        <path id="a" d="M0 0h62v81H0z"/>
        <path id="c" d="M0 81h62V0H0z"/>
    </defs>
    <g fill="none" fill-rule="evenodd">
        <path fill="#000" d="M23 38h5v-3h-5z"/>
        <g>
            <path fill="#000" d="M31 51.3c-11.166 0-20.217-9.066-20.217-20.25 0-11.183 9.051-20.25 20.217-20.25 11.166 0 20.217 9.067 20.217 20.25C51.204 42.228 42.16 51.287 31 51.3m0-43.2C18.345 8.1 8.087 18.375 8.087 31.05 8.087 43.725 18.345 54 31 54c12.654 0 22.913-10.275 22.913-22.95C53.895 18.383 43.647 8.118 31 8.1"/>
            <mask id="b" fill="#fff">
                <use xlink:href="#a"/>
            </mask>
            <path fill="#000" d="M31 77.639C25.878 71.888 2.696 45.077 2.696 31.05 2.696 15.393 15.368 2.7 31 2.7c15.632 0 28.304 12.693 28.304 28.35 0 14.027-23.182 40.838-28.304 46.589M31 0C13.888.022.022 13.91 0 31.05c0 16.74 28.79 48.182 30.016 49.518a1.337 1.337 0 0 0 1.968 0C33.21 79.232 62 47.79 62 31.05 61.978 13.91 48.112.022 31 0" mask="url(#b)"/>
            <mask id="d" fill="#fff">
                <use xlink:href="#c"/>
            </mask>
            <path fill="#000" d="M35.043 21.6h6.74v-1.35h-6.74v1.35zm6.74 20.25H20.217V24.3h6.74V27a1.335 1.335 0 0 0 1.67 1.31l5.392-1.35a1.35 1.35 0 0 0 1.024-1.31V24.3h6.74v17.55zM20.217 21.6h6.74v-1.35h-6.74v1.35zm9.435-1.35h2.696v4.347l-2.696.675V20.25zm13.478-2.7H18.87c-.745 0-1.348.605-1.348 1.35v24.3c0 .746.603 1.35 1.348 1.35h24.26c.745 0 1.348-.604 1.348-1.35V18.9c0-.745-.603-1.35-1.348-1.35z" mask="url(#d)"/>
        </g>
    </g>
</svg>
