<svg xmlns="http://www.w3.org/2000/svg" width="327" height="250" viewBox="0 0 327 250">
    <defs>
        <linearGradient id="a" x1=".005%" x2="100.007%" y1="49.944%" y2="49.944%">
            <stop offset="0%" stop-opacity="0"/>
            <stop offset="99%"/>
        </linearGradient>
        <linearGradient id="b" x1=".004%" y1="49.998%" y2="49.998%">
            <stop offset="0%" stop-opacity="0"/>
            <stop offset="99%"/>
        </linearGradient>
        <linearGradient id="c" x1="78.364%" x2="-42.922%" y1="30.051%" y2="99.271%">
            <stop offset="0%" stop-opacity="0"/>
            <stop offset="99%"/>
        </linearGradient>
        <linearGradient id="d" x1="20.037%" x2="68.35%" y1="25.176%" y2="59.315%">
            <stop offset="0%" stop-opacity="0"/>
            <stop offset="99%"/>
        </linearGradient>
        <linearGradient id="e" x1="12.109%" x2="117.926%" y1="-2.123%" y2="93.115%">
            <stop offset="0%" stop-opacity="0"/>
            <stop offset="99%"/>
        </linearGradient>
        <linearGradient id="f" x1="44.557%" x2="111.974%" y1="28.547%" y2="75.868%">
            <stop offset="0%" stop-opacity="0"/>
            <stop offset="99%"/>
        </linearGradient>
        <linearGradient id="g" x1="-.02%" x2="99.98%" y1="49.998%" y2="49.998%">
            <stop offset="0%" stop-opacity="0"/>
            <stop offset="99%"/>
        </linearGradient>
        <linearGradient id="h" x1="93.932%" x2="-77.961%" y1="40.874%" y2="74.512%">
            <stop offset="0%" stop-opacity="0"/>
            <stop offset="99%"/>
        </linearGradient>
        <linearGradient id="i" x1=".075%" x2="99.991%" y1="49.98%" y2="49.98%">
            <stop offset="0%" stop-color="#E5C5D5"/>
            <stop offset="42%" stop-color="#EAD4D1"/>
            <stop offset="100%" stop-color="#F0E9CB"/>
        </linearGradient>
        <linearGradient id="j" x1=".134%" x2="100.001%" y1="50.016%" y2="50.016%">
            <stop offset="0%" stop-color="#E5C5D5"/>
            <stop offset="42%" stop-color="#EAD4D1"/>
            <stop offset="100%" stop-color="#F0E9CB"/>
        </linearGradient>
        <linearGradient id="k" x1="53.984%" x2="47.173%" y1="21.531%" y2="74.209%">
            <stop offset="0%" stop-opacity="0"/>
            <stop offset="99%"/>
        </linearGradient>
        <linearGradient id="l" x1=".031%" x2="99.974%" y1="50.003%" y2="50.003%">
            <stop offset="0%" stop-color="#E5C5D5"/>
            <stop offset="42%" stop-color="#EAD4D1"/>
            <stop offset="100%" stop-color="#F0E9CB"/>
        </linearGradient>
        <linearGradient id="m" x1="4.357%" x2="90.932%" y1="43.106%" y2="59.143%">
            <stop offset="0%" stop-color="#E5C5D5"/>
            <stop offset="42%" stop-color="#EAD4D1"/>
            <stop offset="100%" stop-color="#F0E9CB"/>
        </linearGradient>
        <linearGradient id="n" x1="50.203%" x2="49.127%" y1="-4.28%" y2="142.236%">
            <stop offset="0%" stop-opacity="0"/>
            <stop offset="99%"/>
        </linearGradient>
        <linearGradient id="o" x1="37.535%" x2="72.416%" y1="42.834%" y2="66.833%">
            <stop offset="0%" stop-opacity="0"/>
            <stop offset="99%"/>
        </linearGradient>
        <linearGradient id="p" x1=".007%" x2="100.195%" y1="49.917%" y2="49.917%">
            <stop offset="0%" stop-color="#E5C5D5"/>
            <stop offset="42%" stop-color="#EAD4D1"/>
            <stop offset="100%" stop-color="#F0E9CB"/>
        </linearGradient>
        <linearGradient id="q" x1="136.413%" x2="-3.165%" y1="47.672%" y2="51.627%">
            <stop offset="2%" stop-color="#FFF" stop-opacity="0"/>
            <stop offset="58%" stop-color="#FFF" stop-opacity=".39"/>
            <stop offset="68%" stop-color="#FFF" stop-opacity=".68"/>
            <stop offset="100%" stop-color="#FFF"/>
        </linearGradient>
        <linearGradient id="r" x1="245.06%" x2="-56.454%" y1="-20.209%" y2="87.728%">
            <stop offset="2%" stop-color="#FFF" stop-opacity="0"/>
            <stop offset="58%" stop-color="#FFF" stop-opacity=".39"/>
            <stop offset="68%" stop-color="#FFF" stop-opacity=".68"/>
            <stop offset="100%" stop-color="#FFF"/>
        </linearGradient>
        <linearGradient id="s" x1="62.24%" x2="9.613%" y1="36.946%" y2="91.92%">
            <stop offset="2%" stop-color="#FFF" stop-opacity="0"/>
            <stop offset="58%" stop-color="#FFF" stop-opacity=".39"/>
            <stop offset="68%" stop-color="#FFF" stop-opacity=".68"/>
            <stop offset="100%" stop-color="#FFF"/>
        </linearGradient>
        <linearGradient id="t" x1="49.029%" x2="56.555%" y1="43.419%" y2="82.944%">
            <stop offset="0%" stop-opacity="0"/>
            <stop offset="99%"/>
        </linearGradient>
    </defs>
    <g fill="none" fill-rule="evenodd">
        <path fill="#3E3E54" fill-rule="nonzero" d="M112.711 137.84s-37.518-9.283-62.654 11.78c-25.136 21.064 3.545 12.149 12.72 15.006 9.177 2.858 23.008 8.214 23.008 8.214s38.256-18.232 26.926-35z"/>
        <path fill="url(#a)" fill-rule="nonzero" d="M112.711 137.84s-37.518-9.283-62.654 11.78c-25.136 21.064 3.545 12.149 12.72 15.006 9.177 2.858 23.008 8.214 23.008 8.214s38.256-18.232 26.926-35z"/>
        <path fill="#3E3E54" fill-rule="nonzero" d="M98.11 198.984s23.612-15.566 38.249-10.852l12.277 3.773s-7.551 47.665-49.585 51.912c0 0-8.969.941.95-15.574 9.919-16.516-1.892-29.259-1.892-29.259z"/>
        <path fill="url(#b)" fill-rule="nonzero" d="M98.11 198.984s23.612-15.566 38.249-10.852l12.277 3.773s-7.551 47.665-49.585 51.912c0 0-8.969.941.95-15.574 9.919-16.516-1.892-29.259-1.892-29.259z"/>
        <path fill="#5271FF" fill-rule="nonzero" d="M164.105 42.91a18.245 18.245 0 0 0 5.305 1.89c2.731.367 5.446-.519 8.095-1.277a93.336 93.336 0 0 1 9.365-2.155c1.737-.298 3.767-.46 5.012.852 1.245 1.312.994 3.577-.092 5.034-1.086 1.456-2.765 2.29-4.386 3.083l-9.507 4.625a29.605 29.605 0 0 1-5.079 2.095c-7.243 1.993-14.762-1.703-21.069-5.817-2.431-1.602-5.063-3.714-5.163-6.66a9.899 9.899 0 0 1 .702-3.408 7.78 7.78 0 0 1 1.988-3.551c2.874-2.53 11.93 3.9 14.829 5.289z"/>
        <path fill="url(#c)" fill-rule="nonzero" d="M164.071 42.899a18.236 18.236 0 0 0 5.305 1.892c2.732.366 5.447-.52 8.095-1.279a90.965 90.965 0 0 1 9.399-2.148c1.729-.307 3.767-.468 5.012.853 1.245 1.32.994 3.571-.092 5.029-1.086 1.457-2.765 2.293-4.386 3.085l-9.507 4.629a29.593 29.593 0 0 1-5.079 2.097c-7.243 1.994-14.762-1.705-21.069-5.822-2.431-1.594-5.063-3.716-5.163-6.666a9.635 9.635 0 0 1 .702-3.41 7.818 7.818 0 0 1 1.921-3.528c2.908-2.557 11.93 3.887 14.862 5.268z"/>
        <path fill="#3E3E54" fill-rule="nonzero" d="M183.489 78.415c-2.777 4.24-6.344 7.978-9.885 11.65-3.542 3.67-7.084 7.282-11.794 9.004-2.321.847-5.072 1.136-7.187-.153-2.295-1.39-3.24-4.367-2.81-6.995a14.027 14.027 0 0 1 3.808-6.927 37.924 37.924 0 0 1 4.865-4.926c1.943-1.458 4.006-1.382 6.542-1.56a125.497 125.497 0 0 1 16.461-.093z"/>
        <path fill="url(#d)" fill-rule="nonzero" d="M183.489 78.415c-2.777 4.24-6.344 7.978-9.885 11.65-3.542 3.67-7.084 7.282-11.794 9.004-2.321.847-5.072 1.136-7.187-.153-2.295-1.39-3.24-4.367-2.81-6.995a14.027 14.027 0 0 1 3.808-6.927 37.924 37.924 0 0 1 4.865-4.926c1.943-1.458 4.006-1.382 6.542-1.56a125.497 125.497 0 0 1 16.461-.093z"/>
        <path fill="#5271FF" fill-rule="nonzero" d="M327 40.616a58.027 58.027 0 0 1-1.334 6.078A139.21 139.21 0 0 1 313.323 76.8c-11.753 21.644-33.282 50.02-72.321 76.301-61.295 41.424-115.092 48.325-134.94 49.367-5.252.297-8.131.187-8.131.187l-17.975-27.977s20.263-30.292 56.837-62.06a332.93 332.93 0 0 1 54.633-38.794 310.135 310.135 0 0 1 36.101-17.448 242.146 242.146 0 0 1 52.903-15.031c29.389-4.595 46.57-.73 46.57-.73z"/>
        <path fill="url(#e)" fill-rule="nonzero" d="M182.817 85.924c-.844 1.558 1.78 6.523 3.216 7.575 1.435 1.052 3.19 1.684 4.22 3.148.419.517.583 1.193.447 1.843-.27.943-1.35 1.364-2.287 1.684l-25.186 7.726a4.056 4.056 0 0 0-1.874.951c-1.013 1.078-.507 2.963.65 3.863a6.767 6.767 0 0 0 4.22 1.044c8.145 0 17.092-3.367 23.912 1.044a20.446 20.446 0 0 1 4.971 5.05 69.786 69.786 0 0 1 10.888 21.1c.735 2.34 1.342 4.89.498 7.196a22.17 22.17 0 0 1-9.858-7.903c-3.056-4.444-4.626-10.15-9.074-13.197-3.25-2.23-7.452-2.525-11.386-2.197-3.933.328-7.807 1.313-11.749 1.364-8.778.109-16.88-4.209-24.612-8.417-1.612-.842-3.444-2.096-3.478-3.93a3.041 3.041 0 0 1 .355-1.448 332.831 332.831 0 0 1 54.618-38.514 310.99 310.99 0 0 1 36.091-17.322c3.343 4.739-44.22 28.692-44.582 29.34z"/>
        <path fill="url(#f)" fill-rule="nonzero" d="M327 40.612s-2.067 14.986-13.557 36.548a108.41 108.41 0 0 1-10.88-4.144c-14.578-6.388-20.587-27.274-21.692-31.607C309.97 36.716 327 40.612 327 40.612z"/>
        <ellipse cx="256.782" cy="80.761" fill="#3E3E54" fill-rule="nonzero" opacity=".31" rx="13.839" ry="13.889"/>
        <ellipse cx="219.879" cy="102.366" fill="#3E3E54" fill-rule="nonzero" opacity=".31" rx="13.839" ry="13.889"/>
        <ellipse cx="178.876" cy="131.173" fill="#3E3E54" fill-rule="nonzero" opacity=".31" rx="13.839" ry="13.889"/>
        <path fill="#3E3E54" fill-rule="nonzero" d="M82.49 165.638l24.118 37.49-13.026 4.69-19.776-32.336zM152.509 120.32c11.082 2.723 22.645-.215 33.83-2.485a6.636 6.636 0 0 1 3.522-.052c1.323.471 2.208 1.714 2.983 2.904a99.726 99.726 0 0 1 9.6 19.011c1.517 4.018 2.941 8.388 6.312 10.992 3.371 2.605 9.389 2.022 10.61-2.099-5.755-16.458-12.843-32.393-19.923-48.31-.64-1.44-1.348-2.965-2.663-3.813a7.986 7.986 0 0 0-3.733-.951l-39.915-3.504c-8.967-.789-22.451-1.997-19.443 10.683 2.074 8.842 10.392 15.55 18.82 17.623z"/>
        <path fill="url(#g)" fill-rule="nonzero" d="M152.509 120.32c11.082 2.723 22.645-.215 33.83-2.485a6.636 6.636 0 0 1 3.522-.052c1.323.471 2.208 1.714 2.983 2.904a99.726 99.726 0 0 1 9.6 19.011c1.517 4.018 2.941 8.388 6.312 10.992 3.371 2.605 9.389 2.022 10.61-2.099-5.755-16.458-12.843-32.393-19.923-48.31-.64-1.44-1.348-2.965-2.663-3.813a7.986 7.986 0 0 0-3.733-.951l-39.915-3.504c-8.967-.789-22.451-1.997-19.443 10.683 2.074 8.842 10.392 15.55 18.82 17.623z"/>
        <path fill="#5271FF" fill-rule="nonzero" d="M161.962 86.118c0 2.748 0 5.59-1.221 8.057-1.56 3.233-4.922 5.267-8.427 6.092-1.11.252-2.236.42-3.37.502-2.42.108-4.844.054-7.256-.161-4.626-.307-9.876-.945-12.64-4.706-1.938-2.646-2.107-6.168-2.183-9.46-.202-9.003-.244-18.005-.311-27.007 0-5.147-2.065-12.09-1.34-17.016.499-4.144 3.206-7.678 7.053-9.207 6.834-2.952 16.76-.782 21.606 4.842 3.884 4.492 5.384 10.576 6.295 16.472 1.66 10.406 1.786 21.024 1.794 31.592z"/>
        <path fill="url(#h)" fill-rule="nonzero" d="M146.83 69.304c.44 6.733.677 13.465.71 20.197a35.803 35.803 0 0 0 .272 5.555c.228 1.405 1.134 2.701 1.295 4.03.07.561.053 1.129-.05 1.684-2.431.106-4.867.053-7.29-.16-4.649-.303-9.923-.934-12.7-4.654-1.948-2.617-2.117-6.101-2.193-9.358-.203-8.904-.246-17.807-.313-26.71 0-5.092-2.075-11.96-1.346-16.832a11.254 11.254 0 0 1 7.086-9.105 9.623 9.623 0 0 1 1.575.673c2.972 1.565 5.215 4.208 7.264 6.867a21.676 21.676 0 0 1 2.71 4.3 22.28 22.28 0 0 1 1.422 6.27c.525 4.418.948 8.853 1.295 13.296.186 2.374-.449 3.871 2.125 4.326 2.189.38 4.4.613 6.621.698 2.26.101 4.936-.16 6.13-2.07a4.338 4.338 0 0 0-.381-4.704 8.392 8.392 0 0 0-4.09-2.777c-1.574-.572-3.234-.892-4.825-1.422a11.873 11.873 0 0 1-4.378-2.433 6.719 6.719 0 0 1-2.252-4.367"/>
        <path fill="url(#i)" fill-rule="nonzero" d="M136.383 31.902a8.67 8.67 0 0 0 .098 2.488c.486 2.03 2.329 3.361 4.155 4.2 1.127.518 2.632.864 3.447-.13.633-.77.477-1.927.28-2.93l-1.086-5.452c-.2-1.22-.516-2.416-.946-3.568-.478-1.167-3.628-5.92-5.224-4.71-.667.502-.387 3.923-.428 4.779l-.296 5.323z"/>
        <path fill="url(#j)" fill-rule="nonzero" d="M136.977 20.97a13.235 13.235 0 0 0 2.896 5.868 8.737 8.737 0 0 0 5.766 2.971 3.987 3.987 0 0 0 2.36-.456 5.36 5.36 0 0 0 1.85-2.698c1.9-4.573 3.825-9.602 2.386-14.35a5.812 5.812 0 0 0-2.595-3.56 6.504 6.504 0 0 0-4.402-.24c-2.511.564-6.278 1.858-7.901 3.983-1.624 2.125-.913 6.15-.36 8.482z"/>
        <path fill="#3E3E54" fill-rule="nonzero" d="M146.392.995c-3.817-1.664-8.26-1.218-11.646 1.168-2.15 1.565-3.686 3.817-5.878 5.316-2.065 1.416-4.564 2.062-6.877 3.056-.281.116-.597.29-.648.58-.085.447.452.737.666 1.143.324.62-.197 1.333-.683 1.855l-2.781 2.948a1.942 1.942 0 0 0-.657 1.11c-.094 1.134 1.561 1.457 2.73 1.358l3.856-.331a21.612 21.612 0 0 0-5.784 5.54c.853.878 2.431.464 3.48-.207 1.05-.67 2.048-1.656 3.294-1.59-1.869 2.923 3.984 2.807 5.733 2.766a11.186 11.186 0 0 0 4.266-1.126 5.079 5.079 0 0 0 1.706-1.069c.498-.47.722-1.15.597-1.813a5.121 5.121 0 0 0-.367-.828 3.773 3.773 0 0 1 .052-3.313c.085-.157.196-.331.384-.356a.626.626 0 0 1 .418.14l1.288.829c-.145-3.498 2.643-6.456 6.245-6.625 2.662-.141 7.533 1.134 6.893-3.081-.512-3.164-3.378-6.186-6.287-7.47z"/>
        <path fill="url(#k)" fill-rule="nonzero" d="M150.702 11.527c1.03-.458 1.687-1.462 1.674-2.562-.013-1.1-.692-2.09-1.733-2.525a7.593 7.593 0 0 0-4.014-.828 15.773 15.773 0 0 0-6.78 1.367c-2.903 1.408-5.003 4.001-7.684 5.799a24.6 24.6 0 0 1-7.386 2.99 8.011 8.011 0 0 0-3.33 1.36c-.154.14-.308.33-.24.521.05.087.12.161.205.216a2.82 2.82 0 0 0 2.272.373c.444-.116.854-.348 1.263-.498a8.397 8.397 0 0 1 3.903 0c1.796.335 3.646.287 5.422-.14a24.26 24.26 0 0 0 4.27-2.072 3.67 3.67 0 0 1 1.707-.347 6.534 6.534 0 0 0-.658 2.974l-1.289-.829a.629.629 0 0 0-.47-.116c-.179 0-.298.2-.384.357a3.805 3.805 0 0 0-.051 3.313c.148.264.268.542.359.829.139.661-.08 1.346-.581 1.814a5.562 5.562 0 0 1-1.708 1.077 11.367 11.367 0 0 1-4.27 1.119c-1.707 0-7.59.157-5.729-2.767-1.246 0-2.305.969-3.296 1.59-.99.622-2.561 1.077-3.483.207a21.5 21.5 0 0 1 5.789-5.542l-3.86.331c-1.178.1-2.826-.223-2.732-1.358.085-.43.313-.82.649-1.11l2.792-2.95c.487-.522 1.008-1.234.683-1.856-.213-.406-.751-.704-.666-1.143.051-.298.367-.464.649-.588 2.305-.986 4.816-1.657 6.882-3.04 2.203-1.5 3.74-3.77 5.883-5.32 3.385-2.396 7.835-2.845 11.656-1.176 2.903 1.317 5.78 4.308 6.259 7.456.316 2.047-.615 2.809-1.973 3.074z"/>
        <path fill="url(#l)" fill-rule="nonzero" d="M197.68 37.232c2.494-.531 5.402 0 6.98 1.879.2.21.322.472.352.751a.45.45 0 0 1-.111.358.525.525 0 0 1-.356.173h-1.842a18.985 18.985 0 0 0-3.454 2.516 12.33 12.33 0 0 1-5.243 2.278c-2.555.466-5.728-1.143-3.745-3.716 1.55-2.017 4.864-3.692 7.42-4.24z"/>
        <path fill="url(#m)" fill-rule="nonzero" d="M194.211 58.943c.82.338 1.404.99 1.576 1.757a.605.605 0 0 1-.079.366c-.235.344-.818.262-1.28.195-3.002-.464-5.857 1.548-8.912 1.495-1.398-.03-2.728-.527-3.708-1.383-.87-.8-1.741-2.31-1.254-3.432.514-1.287 2.255-1.309 3.612-1.346 3.549-.113 7.053.706 10.045 2.348z"/>
        <path fill="#5271FF" fill-rule="nonzero" d="M212.191 27.513l12.042-8.638s2.957-.94 3.949.235c.991 1.175-.124 36.99-.124 36.99l-14.91 6.657-.957-35.244z"/>
        <path fill="url(#n)" fill-rule="nonzero" d="M212.191 27.512l12.076-8.637s2.959-.94 3.951.235c.992 1.175-.301 36.932-.301 36.932l-14.742 6.715-.984-35.245z"/>
        <path fill="url(#o)" fill-rule="nonzero" d="M216.642 27.608l11.95-8.33s-2.133-1.538-3.79-.237c-1.658 1.3-11.586 8.737-11.586 8.737l3.426-.17z"/>
        <path fill="url(#p)" fill-rule="nonzero" d="M212.898 155.222c.092.227.227.436.397.614.213.177.464.3.734.362 1.401.389 2.902.143 4.104-.673a2.873 2.873 0 0 0 1.106-1.305 4.105 4.105 0 0 0-.16-2.526l-.701-2.424a.185.185 0 0 0-.042-.093h-.194c-2.035 1.212-4.434 0-6.376.842-1.638.791.532 3.974 1.132 5.203z"/>
        <path fill="#3E3E54" fill-rule="nonzero" d="M214.635 155.76c-.682.042-1.36.136-2.028.28a2.01 2.01 0 0 0-1.43 1.343 2.791 2.791 0 0 0 .48 1.827c.488.91.975 1.819 1.497 2.711.28.598.728 1.1 1.287 1.445.567.228 1.19.275 1.784.136a21.67 21.67 0 0 0 5.174-1.7 201.322 201.322 0 0 0 10.02-4.597c.547-.272 1.153-.62 1.262-1.224a1.325 1.325 0 0 0-.412-1.147 3.358 3.358 0 0 0-1.077-.646 25.2 25.2 0 0 0-7.37-1.64c-.892-.094-2.39-.519-3.222-.11-.833.407-1.632 1.41-2.524 1.954a8.758 8.758 0 0 1-3.441 1.368z"/>
        <path fill="#5271FF" fill-rule="nonzero" d="M180.407 62.619a12.503 12.503 0 0 1-4.838 1.701l-9.21 1.863c-2.022.51-4.104.74-6.188.68a21.235 21.235 0 0 1-5.518-1.37c-7.147-2.551-18.479-5.554-23.962-11.117-4.151-4.253-3.133-12.674 2.232-14.784a7.337 7.337 0 0 1 3.209-.476c4.55.289 7.64 4.482 11.136 7.434 7.504 6.414 17.979 7.528 27.843 8.26h.865c2.547.187 5.688.85 6.384 3.292.433 1.727-.535 3.522-1.953 4.517zM188.893 76.132l24.941-13.639 2.458-35.405s-3.787-1.562-4.098 2.023c-.312 3.586-2.962 30.535-2.962 30.535L187.69 71.017s-3.206 3.234 1.203 5.115zM93.282 205.784a52.178 52.178 0 0 1-27.664 21.282l4.327-9.313c-5.43 6.742-10.901 13.518-17.332 19.316-6.43 5.797-13.938 10.607-22.302 12.77-.849-1.235.06-2.887.958-4.087a177.131 177.131 0 0 1 19.758-22.227C34.459 233.204 17.823 242.917 0 250a201.898 201.898 0 0 1 40.72-42.13l-10.927 2.826a160.733 160.733 0 0 1 45.691-36.828c7.118 9.782 12.793 20.942 17.798 31.916z"/>
        <path fill="url(#q)" fill-rule="nonzero" d="M93.282 205.784a52.178 52.178 0 0 1-27.664 21.282l4.327-9.313c-5.43 6.742-10.901 13.518-17.332 19.316-6.43 5.797-13.938 10.607-22.302 12.77-.849-1.235.06-2.887.958-4.087a177.131 177.131 0 0 1 19.758-22.227C34.459 233.204 17.823 242.917 0 250a201.898 201.898 0 0 1 40.72-42.13l-10.927 2.826a160.733 160.733 0 0 1 45.691-36.828c7.118 9.782 12.793 20.942 17.798 31.916z"/>
        <path fill="#5271FF" fill-rule="nonzero" d="M58.705 197.536c-.397.564-.795 1.319-.448 1.918.267.34.64.577 1.058.667l3.258 1.102a97.882 97.882 0 0 0-11.56 12.405c-.584.746-1.15 1.882-.482 2.55.317.267.715.41 1.125.408 4.528.416 8.75-2.152 12.61-4.615a20.052 20.052 0 0 1-3.572 7.165c4.367-.868 8.318-3.184 11.847-5.881 3.529-2.698 6.854-5.786 10.493-8.397l-1.201 3.21a20.772 20.772 0 0 0 5.652-5.691 2.653 2.653 0 0 0 .347-3.036 50.242 50.242 0 0 0-7.692-13.94 7.128 7.128 0 0 0-2.115-2.004c-2.658-1.431-8.2 3.227-10.333 4.832a41.39 41.39 0 0 0-8.987 9.307z"/>
        <path fill="url(#r)" fill-rule="nonzero" d="M58.705 197.536c-.397.564-.795 1.319-.448 1.918.267.34.64.577 1.058.667l3.258 1.102a97.882 97.882 0 0 0-11.56 12.405c-.584.746-1.15 1.882-.482 2.55.317.267.715.41 1.125.408 4.528.416 8.75-2.152 12.61-4.615a20.052 20.052 0 0 1-3.572 7.165c4.367-.868 8.318-3.184 11.847-5.881 3.529-2.698 6.854-5.786 10.493-8.397l-1.201 3.21a20.772 20.772 0 0 0 5.652-5.691 2.653 2.653 0 0 0 .347-3.036 50.242 50.242 0 0 0-7.692-13.94 7.128 7.128 0 0 0-2.115-2.004c-2.658-1.431-8.2 3.227-10.333 4.832a41.39 41.39 0 0 0-8.987 9.307z"/>
        <path fill="url(#s)" fill-rule="nonzero" d="M179.686 58.394a3.395 3.395 0 0 1-1.585.234c-5.6 0-11.24-.087-16.765-1.1-5.524-1.013-10.973-3.038-15.332-6.665-3.076-2.597-5.507-5.809-8.592-8.336-.838-.719-3.018-1.62-3.127-2.926a7.05 7.05 0 0 1 3.169-.485c4.493.294 7.544 4.562 10.998 7.566 7.41 6.527 17.754 7.66 27.495 8.405h.201a8.55 8.55 0 0 1 3.512 1.1c.336.168.597.462.73.822a1.247 1.247 0 0 1-.704 1.385z"/>
        <path fill="url(#t)" fill-rule="nonzero" d="M327 41.212l-1.04 5.815a139.373 139.373 0 0 1-12.344 30.278c-11.77 21.769-33.307 50.265-72.369 76.74-61.35 41.66-115.19 48.601-135.055 49.659l-6.76-9.473C254.8 147.94 291.505 73.86 295.78 73.246c4.275-.613 17.135-32.094 17.135-32.094l14.085.06z"/>
        <path d="M152.667 9.556a3.22 3.22 0 0 1-1.524 1.74 9.727 9.727 0 0 1-1.742.87l-6.839 2.75a5.835 5.835 0 0 1-2.16.295 3.654 3.654 0 0 0-1.742.365 24.457 24.457 0 0 1-4.356 2.175c-1.811.45-3.698.5-5.531.148a8.33 8.33 0 0 0-3.981 0c-.436.157-.871.4-1.29.522a2.808 2.808 0 0 1-2.317-.392.644.644 0 0 1-.209-.226c-.07-.2.087-.4.244-.548a8.046 8.046 0 0 1 3.398-1.426 24.697 24.697 0 0 0 7.535-3.14c2.752-1.854 4.895-4.577 7.84-6.09a15.698 15.698 0 0 1 6.916-1.436c1.42-.1 2.84.2 4.094.87a3.226 3.226 0 0 1 1.664 3.523z"/>
    </g>
</svg>
