<svg xmlns="http://www.w3.org/2000/svg" width="165" height="31" viewBox="0 0 165 31">
    <g fill="none" fill-rule="nonzero">
        <path fill="#FFF" d="M33.7 26.497v4.275H0v-4.275h33.7zM25.86.065v4.112H7.282V18.24h18.576v4.481H2.295V.044l23.564.021z"/>
        <path fill="#FFF" d="M43.135 17.828v-2.513h-9.468V5.94h19.368V3.655H33.667V.065H57.46v9.333H38.092v2.317H57.46v3.59h-9.867v2.523h12.064v3.916H38.349v4.764h24.586v4.274H33.699v-9.05H31.47v-3.904zM94.405 26.497v4.275H62.94v-4.275h31.465zM83.128.065a7.158 7.158 0 0 1 5.055 2.082 7.092 7.092 0 0 1 2.092 5.032v3.361a7.092 7.092 0 0 1-2.092 5.032 7.158 7.158 0 0 1-5.055 2.082H70.934c-3.943-.01-7.138-3.189-7.147-7.114V7.179c.01-3.925 3.204-7.105 7.147-7.114h12.194zm-.852 13.02a3.538 3.538 0 0 0 3.54-3.524V8.158a3.5 3.5 0 0 0-1.032-2.497 3.532 3.532 0 0 0-2.508-1.027h-10.49a3.532 3.532 0 0 0-2.508 1.027 3.5 3.5 0 0 0-1.032 2.497V9.56a3.538 3.538 0 0 0 3.54 3.524h10.49zM106.24 26.497v-5.95h-9.737V8.31h19.57V4.46h-19.57V.109H120.5v12.28h-19.57v3.753h19.832v4.35h-9.998v5.874h11.834v4.351H94.405v-4.275z"/>
        <path fill="#FF8E6B" d="M143.184 19.775v-1.947h-6.819v-4.112h28.192v4.112h-6.818v1.958c3.016.163 5.463 2.414 5.463 5.482 0 3.198-2.622 5.514-5.835 5.514H143.6c-3.212 0-5.835-2.316-5.835-5.514-.022-3.09 2.371-5.33 5.42-5.493zm20.292-8.19h-6.557l-6.326-7.767-6.327 7.766h-6.557L147.48 0h6.228l9.769 11.584zm-19.899 15.173h13.769a1.51 1.51 0 0 0 1.384-1.501 1.51 1.51 0 0 0-1.384-1.501h-13.769a1.51 1.51 0 0 0-1.385 1.5 1.51 1.51 0 0 0 1.385 1.502zm4.327-7.016h5.114v-1.914h-5.114v1.914z"/>
    </g>
</svg>
