<svg xmlns="http://www.w3.org/2000/svg" xmlns:xlink="http://www.w3.org/1999/xlink" width="101" height="85" viewBox="0 0 101 85">
    <defs>
        <path id="a" d="M0 .116h101V84.14H0z"/>
        <path id="c" d="M0 84h101V0H0z"/>
    </defs>
    <g fill="none" fill-rule="evenodd">
        <mask id="b" fill="#fff">
            <use xlink:href="#a"/>
        </mask>
        <path fill="#000" d="M98.138 78.717c-.009 1.592-1.46 2.877-3.244 2.87l-.045-.001H66.834c-1.764.026-3.219-1.229-3.249-2.804V41.83c-.018-1.615 1.434-2.937 3.243-2.954h5.155c.63 1.858 2.557 3.122 4.731 3.103h8.255c2.174.019 4.101-1.245 4.731-3.103h5.15c1.818.01 3.287 1.33 3.288 2.954v36.887zM60.723 41.83v26.422L41.3 78.278V41.677l35.37-18.3v9.659h.044c-2.238.019-4.191 1.359-4.787 3.285h-5.093c-3.391.015-6.128 2.481-6.111 5.509zm-20.925-2.366L23.1 30.858 58.602 12.56 75.3 21.166 39.798 39.464zm-1.36 38.814L2.861 59.98V23.378l35.575 18.299v36.601zm1.36-75.41l15.942 8.217-35.502 18.298-15.942-8.217L39.798 2.868zM85.02 35.591c1.147 0 2.077.83 2.077 1.855v.123c0 1.025-.93 1.855-2.077 1.855h-8.317c-1.147 0-2.077-.83-2.077-1.855v-.123c0-1.025.93-1.855 2.077-1.855h8.317zm9.83.73h-5.094c-.595-1.926-2.549-3.266-4.787-3.285h-5.437V21.168c.013-.452-.249-.875-.684-1.107L40.498.287a1.565 1.565 0 0 0-1.424 0L.711 20.06c-.441.229-.713.65-.711 1.107v39.549c0 .456.273.878.716 1.106l38.366 19.775c.218.112.464.171.716.171.257 0 .51-.059.736-.171l20.189-10.396v7.515c-.01 2.988 2.697 5.417 6.044 5.424H94.85c3.366.028 6.12-2.385 6.151-5.39V41.83c-.002-3.035-2.751-5.497-6.15-5.509z" mask="url(#b)"/>
        <path fill="#000" d="M69.479 56h1.558a1.49 1.49 0 0 0 0-2.979h-.058V48.98h4.107a1.434 1.434 0 0 0 1.417 1.005A1.494 1.494 0 0 0 78 48.5v-1.003A1.51 1.51 0 0 0 76.494 46H69.48A1.486 1.486 0 0 0 68 47.494v7.018A1.478 1.478 0 0 0 69.47 56h.009z"/>
        <mask id="d" fill="#fff">
            <use xlink:href="#c"/>
        </mask>
        <path fill="#000" d="M70.979 64.021h4.042V59.98H70.98v4.042zM69.489 67h7.022A1.49 1.49 0 0 0 78 65.51v-7.02A1.49 1.49 0 0 0 76.51 57h-7.02A1.49 1.49 0 0 0 68 58.49v7.02c0 .823.667 1.49 1.49 1.49zM71.038 77.02h-.06V72.98h4.028a1.497 1.497 0 0 0 2.994.003v-1.436A1.553 1.553 0 0 0 76.494 70H69.48A1.53 1.53 0 0 0 68 71.546v7.016a1.436 1.436 0 0 0 1.479 1.437h1.559a1.49 1.49 0 0 0 0-2.978M78.64 48.312L74.59 51.43l-1.231-.949c-.54-.415-1.415-.415-1.955 0-.54.416-.54 1.09 0 1.506l2.209 1.701c.54.416 1.415.416 1.955 0l5.026-3.87c.54-.416.54-1.09 0-1.506-.54-.416-1.415-.416-1.955 0z" mask="url(#d)"/>
        <path fill="#000" d="M78.64 71.312L74.59 74.43l-1.231-.949c-.54-.415-1.415-.415-1.955 0-.54.416-.54 1.09 0 1.506l2.209 1.701c.54.416 1.415.416 1.955 0l5.026-3.87c.54-.416.54-1.09 0-1.506-.54-.416-1.415-.416-1.955 0zM93.55 49h-9.1c-.801 0-1.45.895-1.45 2s.649 2 1.45 2h9.1c.801 0 1.45-.895 1.45-2s-.649-2-1.45-2M93.55 61h-9.1c-.801 0-1.45.895-1.45 2s.649 2 1.45 2h9.1c.801 0 1.45-.895 1.45-2s-.649-2-1.45-2M93.55 72h-9.1c-.801 0-1.45.895-1.45 2s.649 2 1.45 2h9.1c.801 0 1.45-.895 1.45-2s-.649-2-1.45-2" mask="url(#d)"/>
    </g>
</svg>
