<svg xmlns="http://www.w3.org/2000/svg" xmlns:xlink="http://www.w3.org/1999/xlink" width="101" height="81" viewBox="0 0 101 81">
    <defs>
        <path id="a" d="M0 0h101v81H0z"/>
    </defs>
    <g fill="none" fill-rule="evenodd">
        <mask id="b" fill="#fff">
            <use xlink:href="#a"/>
        </mask>
        <path fill="#000" d="M93.447 42.675l-21.544-.102V21.1h19.84l1.704 21.576zm3.42 15.494H71.903V45.134l22.747.108c.058.01.116.016.174.017h.102l.083-.01h1.854l.004 12.92zm1.571 8.428h-6.326a11.445 11.445 0 0 0-3.808-5.868h10.134v5.868zM81.136 78.439c-4.873 0-8.823-3.964-8.823-8.855 0-4.89 3.95-8.855 8.823-8.855 4.872 0 8.822 3.965 8.822 8.855-.006 4.889-3.952 8.85-8.822 8.855zm-50.25-11.842a11.443 11.443 0 0 0-3.808-5.868h46.889a11.443 11.443 0 0 0-3.808 5.868H30.885zM19.908 78.439c-4.872 0-8.822-3.964-8.822-8.855 0-4.89 3.95-8.855 8.822-8.855 4.873 0 8.823 3.965 8.823 8.855-.006 4.889-3.953 8.85-8.823 8.855zM2.551 66.597v-5.868h10.19a11.443 11.443 0 0 0-3.808 5.868H2.551zm1.626-12.956h3.374l-2.18 4.528H4.176V53.64zm1.701-42.41h17.526v8.587a1.278 1.278 0 0 0 1.913 1.106l4.716-2.763 4.437 2.746a1.271 1.271 0 0 0 1.945-1.089V11.23H54.22v39.85H5.878V11.23zm0-2.561h17.518V2.56H5.878v6.11zm20.069-6.11h7.908v14.96l-3.144-1.948a1.271 1.271 0 0 0-1.314-.015l-3.45 2.025V2.561zm10.468 6.11H54.22V2.56H36.415v6.11zM51.573 53.64H55.6l-2.191 4.528h-4.03l2.193-4.528zm-6.863 0h4.029l-2.192 4.528h-4.04l2.203-4.528zm-6.862 0h4.028l-2.196 4.528h-4.04l2.208-4.528zm-6.863 0h4.018l-2.18 4.528h-4.04l2.202-4.528zm-11.88 4.528h-4.038l2.18-4.528h4.04l-2.181 4.528zm2.835 0l2.18-4.528h4.04l-2.202 4.528H21.94zM10.396 53.64h4.039l-2.202 4.528h-4.04l2.203-4.528zm48.896 4.528h-3.049l2.182-4.528h.867v4.528zm2.551 0h7.509v-37.07h-7.509v37.07zm0-39.63h36.595v-4.076H61.843v4.075zm37.87 2.56c.705 0 1.276-.574 1.276-1.28v-6.637c0-.707-.57-1.28-1.275-1.28H60.567c-.704 0-1.275.573-1.275 1.28V51.08h-2.52V2.238A2.236 2.236 0 0 0 54.543 0H5.557a2.236 2.236 0 0 0-2.23 2.238V51.08h-.425c-.704 0-1.276.574-1.276 1.28v5.809h-.35c-.705 0-1.276.573-1.276 1.28v8.428c0 .708.571 1.28 1.276 1.28h7.27v.427C8.546 75.89 13.638 81 19.92 81c6.281 0 11.374-5.11 11.374-11.416 0-.143 0-.285-.011-.426h38.5c0 .14-.01.283-.01.426C69.773 75.89 74.865 81 81.146 81c6.282 0 11.374-5.11 11.374-11.416 0-.143 0-.285-.01-.426h7.214c.705 0 1.276-.573 1.276-1.28v-8.43c0-.706-.571-1.28-1.276-1.28h-.305V43.98c0-.707-.572-1.28-1.276-1.28h-2.126l-1.7-21.59 5.397-.01z" mask="url(#b)"/>
    </g>
</svg>
